# xmcd
#
# Track frame offsets: 
#        150
#        24495
#        36965
#        59900
#        79082
#        98327
#        115257
#        139785
#        153615
#        166727
#
# Disc length: 2363 seconds
#
# Revision: 59
# Processed by: cddbd v1.5.2PL0 Copyright (c) Steve Scherf et al.
# Submitted via: ExactAudioCopy v1.0b3
#
DISCID=7c09390a
DTITLE=Stan Getz and João Gilberto - Getz–Gilberto
DYEAR=1997
DGENRE=Bossa Nova
TTITLE0=The Girl From Ipanema
TTITLE1=Doralice
TTITLE2=Para Machuchar Meu Coração
TTITLE3=Desafinado (Off Key)
TTITLE4=Corcovado (Quiet Nights of Quiet Stars)
TTITLE5=Só Danço Samba
TTITLE6=O Grande Amor
TTITLE7=Vivo Sonhando (Dreamer)
TTITLE8=The Girl From Ipanema – 45 rpm issue
TTITLE9=Corcovado (Quiet Nights of Quiet Stars) – 45 rpm issue
EXTD=Featuring Antonio Carlos Jobim\nRecorded March 18 and 19, 1963.\n
EXTD=Tommy Wilson bass\nMilton Banana drums
EXTT0=
EXTT1=
EXTT2=
EXTT3=
EXTT4=
EXTT5=
EXTT6=
EXTT7=
EXTT8=
EXTT9=
PLAYORDER=
